<svg version="1.1" xmlns="http://www.w3.org/2000/svg" xmlns:xlink="http://www.w3.org/1999/xlink" width="548.66455078125" height="252"><defs/><g><text fill="#eeeeee" stroke="none" font-family="Arial" font-size="24px" font-style="normal" font-weight="normal" text-decoration="none" x="0" y="0">UNREGISTERED</text><text fill="#eeeeee" stroke="none" font-family="Arial" font-size="24px" font-style="normal" font-weight="normal" text-decoration="none" x="0" y="30">UNREGISTERED</text><text fill="#eeeeee" stroke="none" font-family="Arial" font-size="24px" font-style="normal" font-weight="normal" text-decoration="none" x="0" y="60">UNREGISTERED</text><text fill="#eeeeee" stroke="none" font-family="Arial" font-size="24px" font-style="normal" font-weight="normal" text-decoration="none" x="0" y="90">UNREGISTERED</text><text fill="#eeeeee" stroke="none" font-family="Arial" font-size="24px" font-style="normal" font-weight="normal" text-decoration="none" x="0" y="120">UNREGISTERED</text><text fill="#eeeeee" stroke="none" font-family="Arial" font-size="24px" font-style="normal" font-weight="normal" text-decoration="none" x="0" y="150">UNREGISTERED</text><text fill="#eeeeee" stroke="none" font-family="Arial" font-size="24px" font-style="normal" font-weight="normal" text-decoration="none" x="0" y="180">UNREGISTERED</text><text fill="#eeeeee" stroke="none" font-family="Arial" font-size="24px" font-style="normal" font-weight="normal" text-decoration="none" x="0" y="210">UNREGISTERED</text><text fill="#eeeeee" stroke="none" font-family="Arial" font-size="24px" font-style="normal" font-weight="normal" text-decoration="none" x="0" y="240">UNREGISTERED</text><text fill="#eeeeee" stroke="none" font-family="Arial" font-size="24px" font-style="normal" font-weight="normal" text-decoration="none" x="200" y="0">UNREGISTERED</text><text fill="#eeeeee" stroke="none" font-family="Arial" font-size="24px" font-style="normal" font-weight="normal" text-decoration="none" x="200" y="30">UNREGISTERED</text><text fill="#eeeeee" stroke="none" font-family="Arial" font-size="24px" font-style="normal" font-weight="normal" text-decoration="none" x="200" y="60">UNREGISTERED</text><text fill="#eeeeee" stroke="none" font-family="Arial" font-size="24px" font-style="normal" font-weight="normal" text-decoration="none" x="200" y="90">UNREGISTERED</text><text fill="#eeeeee" stroke="none" font-family="Arial" font-size="24px" font-style="normal" font-weight="normal" text-decoration="none" x="200" y="120">UNREGISTERED</text><text fill="#eeeeee" stroke="none" font-family="Arial" font-size="24px" font-style="normal" font-weight="normal" text-decoration="none" x="200" y="150">UNREGISTERED</text><text fill="#eeeeee" stroke="none" font-family="Arial" font-size="24px" font-style="normal" font-weight="normal" text-decoration="none" x="200" y="180">UNREGISTERED</text><text fill="#eeeeee" stroke="none" font-family="Arial" font-size="24px" font-style="normal" font-weight="normal" text-decoration="none" x="200" y="210">UNREGISTERED</text><text fill="#eeeeee" stroke="none" font-family="Arial" font-size="24px" font-style="normal" font-weight="normal" text-decoration="none" x="200" y="240">UNREGISTERED</text><text fill="#eeeeee" stroke="none" font-family="Arial" font-size="24px" font-style="normal" font-weight="normal" text-decoration="none" x="400" y="0">UNREGISTERED</text><text fill="#eeeeee" stroke="none" font-family="Arial" font-size="24px" font-style="normal" font-weight="normal" text-decoration="none" x="400" y="30">UNREGISTERED</text><text fill="#eeeeee" stroke="none" font-family="Arial" font-size="24px" font-style="normal" font-weight="normal" text-decoration="none" x="400" y="60">UNREGISTERED</text><text fill="#eeeeee" stroke="none" font-family="Arial" font-size="24px" font-style="normal" font-weight="normal" text-decoration="none" x="400" y="90">UNREGISTERED</text><text fill="#eeeeee" stroke="none" font-family="Arial" font-size="24px" font-style="normal" font-weight="normal" text-decoration="none" x="400" y="120">UNREGISTERED</text><text fill="#eeeeee" stroke="none" font-family="Arial" font-size="24px" font-style="normal" font-weight="normal" text-decoration="none" x="400" y="150">UNREGISTERED</text><text fill="#eeeeee" stroke="none" font-family="Arial" font-size="24px" font-style="normal" font-weight="normal" text-decoration="none" x="400" y="180">UNREGISTERED</text><text fill="#eeeeee" stroke="none" font-family="Arial" font-size="24px" font-style="normal" font-weight="normal" text-decoration="none" x="400" y="210">UNREGISTERED</text><text fill="#eeeeee" stroke="none" font-family="Arial" font-size="24px" font-style="normal" font-weight="normal" text-decoration="none" x="400" y="240">UNREGISTERED</text><g transform="translate(-77,-142) scale(1,1)"><rect fill="#C0C0C0" stroke="none" x="260" y="239" width="94.01953125" height="26" opacity="0.2"/></g><g transform="translate(-77,-142) scale(1,1)"><rect fill="#ffffff" stroke="none" x="253" y="232" width="94.01953125" height="26"/></g><g transform="translate(-77,-142) scale(1,1)"><path fill="none" stroke="#000000" d="M 253 232 L 347.01953125 232 L 347.01953125 258 L 253 258 L 253 232 Z Z" stroke-miterlimit="10"/></g><g transform="translate(-77,-142) scale(1,1)"><g><path fill="none" stroke="none"/><text fill="#000000" stroke="none" font-family="Arial" font-size="15px" font-style="normal" font-weight="bold" text-decoration="none" x="259.576416015625" y="253.5">GameOfLife</text></g></g><g transform="translate(-77,-142) scale(1,1)"><rect fill="#C0C0C0" stroke="none" x="135" y="327" width="110.8671875" height="24" opacity="0.2"/></g><g transform="translate(-77,-142) scale(1,1)"><rect fill="#ffffff" stroke="none" x="128" y="320" width="110.8671875" height="24"/></g><g transform="translate(-77,-142) scale(1,1)"><path fill="none" stroke="#000000" d="M 128 320 L 238.8671875 320 L 238.8671875 344 L 128 344 L 128 320 Z Z" stroke-miterlimit="10"/></g><g transform="translate(-77,-142) scale(1,1)"><g><path fill="none" stroke="none"/><text fill="#000000" stroke="none" font-family="Arial" font-size="13px" font-style="normal" font-weight="bold" text-decoration="none" x="136.108642578125" y="339.5">ArgumentParser</text></g></g><g transform="translate(-77,-142) scale(1,1)"><rect fill="#C0C0C0" stroke="none" x="418" y="191" width="89.90087890625" height="24" opacity="0.2"/></g><g transform="translate(-77,-142) scale(1,1)"><rect fill="#ffffff" stroke="none" x="411" y="184" width="89.90087890625" height="24"/></g><g transform="translate(-77,-142) scale(1,1)"><path fill="none" stroke="#000000" d="M 411 184 L 500.90087890625 184 L 500.90087890625 208 L 411 208 L 411 184 Z Z" stroke-miterlimit="10"/></g><g transform="translate(-77,-142) scale(1,1)"><g><path fill="none" stroke="none"/><text fill="#000000" stroke="none" font-family="Arial" font-size="13px" font-style="normal" font-weight="bold" text-decoration="none" x="418.365966796875" y="203.5">BoardLoader</text></g></g><g transform="translate(-77,-142) scale(1,1)"><rect fill="#C0C0C0" stroke="none" x="422" y="263" width="81.97900390625" height="24" opacity="0.2"/></g><g transform="translate(-77,-142) scale(1,1)"><rect fill="#ffffff" stroke="none" x="415" y="256" width="81.97900390625" height="24"/></g><g transform="translate(-77,-142) scale(1,1)"><path fill="none" stroke="#000000" d="M 415 256 L 496.97900390625 256 L 496.97900390625 280 L 415 280 L 415 256 Z Z" stroke-miterlimit="10"/></g><g transform="translate(-77,-142) scale(1,1)"><g><path fill="none" stroke="none"/><text fill="#000000" stroke="none" font-family="Arial" font-size="13px" font-style="normal" font-weight="bold" text-decoration="none" x="421.66455078125" y="275.5">BoardSaver</text></g></g><g transform="translate(-77,-142) scale(1,1)"><rect fill="#C0C0C0" stroke="none" x="399" y="326" width="127.4853515625" height="24" opacity="0.2"/></g><g transform="translate(-77,-142) scale(1,1)"><rect fill="#ffffff" stroke="none" x="392" y="319" width="127.4853515625" height="24"/></g><g transform="translate(-77,-142) scale(1,1)"><path fill="none" stroke="#000000" d="M 392 319 L 519.4853515625 319 L 519.4853515625 343 L 392 343 L 392 319 Z Z" stroke-miterlimit="10"/></g><g transform="translate(-77,-142) scale(1,1)"><g><path fill="none" stroke="none"/><text fill="#000000" stroke="none" font-family="Arial" font-size="13px" font-style="normal" font-weight="bold" text-decoration="none" x="400.46728515625" y="338.5">GraphicsGenerator</text></g></g><g transform="translate(-77,-142) scale(1,1)"><rect fill="#C0C0C0" stroke="none" x="566" y="326" width="56.66455078125" height="24" opacity="0.2"/></g><g transform="translate(-77,-142) scale(1,1)"><rect fill="#ffffff" stroke="none" x="559" y="319" width="56.66455078125" height="24"/></g><g transform="translate(-77,-142) scale(1,1)"><path fill="none" stroke="#000000" d="M 559 319 L 615.66455078125 319 L 615.66455078125 343 L 559 343 L 559 319 Z Z" stroke-miterlimit="10"/></g><g transform="translate(-77,-142) scale(1,1)"><g><path fill="none" stroke="none"/><text fill="#000000" stroke="none" font-family="Arial" font-size="13px" font-style="normal" font-weight="bold" text-decoration="none" x="564.57275390625" y="338.5">LibPNG</text></g></g><g transform="translate(-77,-142) scale(1,1)"><rect fill="#C0C0C0" stroke="none" x="569" y="367" width="50.919921875" height="24" opacity="0.2"/></g><g transform="translate(-77,-142) scale(1,1)"><rect fill="#ffffff" stroke="none" x="562" y="360" width="50.919921875" height="24"/></g><g transform="translate(-77,-142) scale(1,1)"><path fill="none" stroke="#000000" d="M 562 360 L 612.919921875 360 L 612.919921875 384 L 562 384 L 562 360 Z Z" stroke-miterlimit="10"/></g><g transform="translate(-77,-142) scale(1,1)"><g><path fill="none" stroke="none"/><text fill="#000000" stroke="none" font-family="Arial" font-size="13px" font-style="normal" font-weight="bold" text-decoration="none" x="576.986328125" y="379.5">Zlib</text></g></g><g transform="translate(-77,-142) scale(1,1)"><rect fill="#C0C0C0" stroke="none" x="94" y="239" width="94.9599609375" height="24" opacity="0.2"/></g><g transform="translate(-77,-142) scale(1,1)"><rect fill="#ffffff" stroke="none" x="87" y="232" width="94.9599609375" height="24"/></g><g transform="translate(-77,-142) scale(1,1)"><path fill="none" stroke="#000000" d="M 87 232 L 181.9599609375 232 L 181.9599609375 256 L 87 256 L 87 232 Z Z" stroke-miterlimit="10"/></g><g transform="translate(-77,-142) scale(1,1)"><g><path fill="none" stroke="none"/><text fill="#000000" stroke="none" font-family="Arial" font-size="13px" font-style="normal" font-weight="bold" text-decoration="none" x="94.372314453125" y="251.5">BoardHandler</text></g></g><g transform="translate(-77,-142) scale(1,1)"><path fill="none" stroke="#000000" d="M 281 259 L 200 319" stroke-miterlimit="10"/></g><g transform="translate(-77,-142) scale(1,1)"><path fill="none" stroke="#000000" d="M 205.66066954223874 309.56830766333155 L 200 319 L 210.67191142869663 316.3334842100497" stroke-miterlimit="10"/></g><g transform="translate(-77,-142) scale(1,1)"><path fill="none" stroke="#000000" d="M 252 245 L 183 244" stroke-miterlimit="10"/></g><g transform="translate(-77,-142) scale(1,1)"><path fill="none" stroke="#000000" d="M 193.2226088397942 239.9381939351365 L 183 244 L 193.10060664436563 248.3563454197064" stroke-miterlimit="10"/></g><g transform="translate(-77,-142) scale(1,1)"><path fill="none" stroke="#000000" d="M 134 231 L 134 201" stroke-miterlimit="10"/></g><g transform="translate(-77,-142) scale(1,1)"><path fill="none" stroke="#000000" d="M 138.209517756016 211.16267485762415 L 134 201 L 129.790482243984 211.16267485762415" stroke-miterlimit="10"/></g><g transform="translate(-77,-142) scale(1,1)"><rect fill="#C0C0C0" stroke="none" x="107" y="183" width="68.95361328125" height="24" opacity="0.2"/></g><g transform="translate(-77,-142) scale(1,1)"><rect fill="#ffffff" stroke="none" x="100" y="176" width="68.95361328125" height="24"/></g><g transform="translate(-77,-142) scale(1,1)"><path fill="none" stroke="#000000" d="M 100 176 L 168.95361328125 176 L 168.95361328125 200 L 100 200 L 100 176 Z Z" stroke-miterlimit="10"/></g><g transform="translate(-77,-142) scale(1,1)"><g><path fill="none" stroke="none"/><text fill="#000000" stroke="none" font-family="Arial" font-size="13px" font-style="normal" font-weight="bold" text-decoration="none" x="107.023193359375" y="195.5">Simulator</text></g></g><g transform="translate(-77,-142) scale(1,1)"><path fill="none" stroke="#000000" d="M 344 231 L 414 209" stroke-miterlimit="10"/></g><g transform="translate(-77,-142) scale(1,1)"><path fill="none" stroke="#000000" d="M 405.5669974216207 216.06289370676416 L 414 209 L 403.04274665621165 208.0311867259171" stroke-miterlimit="10"/></g><g transform="translate(-77,-142) scale(1,1)"><path fill="none" stroke="#000000" d="M 348 252 L 414 262" stroke-miterlimit="10"/></g><g transform="translate(-77,-142) scale(1,1)"><path fill="none" stroke="#000000" d="M 403.3213973992229 264.6395921076327 L 414 262 L 404.5826142085206 256.3155611662678" stroke-miterlimit="10"/></g><g transform="translate(-77,-142) scale(1,1)"><rect fill="#C0C0C0" stroke="none" x="279" y="159" width="50.919921875" height="24" opacity="0.2"/></g><g transform="translate(-77,-142) scale(1,1)"><rect fill="#ffffff" stroke="none" x="272" y="152" width="50.919921875" height="24"/></g><g transform="translate(-77,-142) scale(1,1)"><path fill="none" stroke="#000000" d="M 272 152 L 322.919921875 152 L 322.919921875 176 L 272 176 L 272 152 Z Z" stroke-miterlimit="10"/></g><g transform="translate(-77,-142) scale(1,1)"><g><path fill="none" stroke="none"/><text fill="#000000" stroke="none" font-family="Arial" font-size="13px" font-style="normal" font-weight="bold" text-decoration="none" x="280.114990234375" y="171.5">Board</text></g></g><g transform="translate(-77,-142) scale(1,1)"><path fill="none" stroke="#000000" d="M 160 231 L 271 177" stroke-miterlimit="10"/></g><g transform="translate(-77,-142) scale(1,1)"><path fill="none" stroke="#000000" d="M 263.7028858836541 185.23116793493037 L 271 177 L 260.0198464613652 177.6604757891143" stroke-miterlimit="10"/></g><g transform="translate(-77,-142) scale(1,1)"><path fill="none" stroke="#000000" d="M 410 187 L 324 169" stroke-miterlimit="10"/></g><g transform="translate(-77,-142) scale(1,1)"><path fill="none" stroke="#000000" d="M 334.8095059629685 166.96172110923234 L 324 169 L 333.08475579330263 175.20219414208023" stroke-miterlimit="10"/></g><g transform="translate(-77,-142) scale(1,1)"><path fill="none" stroke="#000000" d="M 435 255 L 317 177" stroke-miterlimit="10"/></g><g transform="translate(-77,-142) scale(1,1)"><path fill="none" stroke="#000000" d="M 327.7991652945561 179.09237399641066 L 317 177 L 323.15663116929466 186.11569485257542" stroke-miterlimit="10"/></g><g transform="translate(-77,-142) scale(1,1)"><path fill="none" stroke="#000000" d="M 455 281 L 455 318" stroke-miterlimit="10"/></g><g transform="translate(-77,-142) scale(1,1)"><path fill="none" stroke="#000000" d="M 450.790482243984 307.83732514237585 L 455 318 L 459.209517756016 307.83732514237585" stroke-miterlimit="10"/></g><g transform="translate(-77,-142) scale(1,1)"><path fill="none" stroke="#000000" d="M 520 331 L 558 331" stroke-miterlimit="10"/></g><g transform="translate(-77,-142) scale(1,1)"><path fill="none" stroke="#000000" d="M 547.8373251423759 335.209517756016 L 558 331 L 547.8373251423758 326.790482243984" stroke-miterlimit="10"/></g><g transform="translate(-77,-142) scale(1,1)"><path fill="none" stroke="#000000" d="M 587 344 L 587 359" stroke-miterlimit="10"/></g><g transform="translate(-77,-142) scale(1,1)"><path fill="none" stroke="#000000" d="M 582.790482243984 348.83732514237585 L 587 359 L 591.209517756016 348.83732514237585" stroke-miterlimit="10"/></g></g></svg>